<svg width="620" height="110" viewBox="0 0 620 110" fill="none" xmlns="http://www.w3.org/2000/svg">
<path d="M0.9 108L23.55 0.899993H53.1L57.9 81H58.5L98.7 0.899993H129.75L107.1 108H86.55L97.2 57.3C97.9 53.9 98.7 50.3 99.6 46.5C100.6 42.6 101.55 38.8 102.45 35.1C103.45 31.3 104.35 27.95 105.15 25.05H104.55L62.85 108H42.3L37.8 25.05H37.2C37 27.15 36.6 30.05 36 33.75C35.4 37.35 34.7 41.3 33.9 45.6C33.2 49.9 32.4 54.1 31.5 58.2L21 108H0.9Z" fill="#8E6FFF"/>
<path d="M173.232 109.5C165.832 109.5 159.582 108.25 154.482 105.75C149.482 103.25 145.682 99.75 143.082 95.25C140.582 90.65 139.332 85.35 139.332 79.35C139.332 77.75 139.382 76 139.482 74.1C139.682 72.1 139.982 70.25 140.382 68.55L154.782 0.899993H177.132L162.882 68.25C162.482 69.95 162.182 71.6 161.982 73.2C161.782 74.7 161.682 76.1 161.682 77.4C161.682 81.6 162.832 84.85 165.132 87.15C167.432 89.35 170.882 90.45 175.482 90.45C179.882 90.45 183.482 89.65 186.282 88.05C189.182 86.35 191.482 83.85 193.182 80.55C194.982 77.15 196.382 73 197.382 68.1L211.632 0.899993H233.982L219.282 70.2C217.682 77.8 215.082 84.55 211.482 90.45C207.882 96.35 202.932 101 196.632 104.4C190.432 107.8 182.632 109.5 173.232 109.5Z" fill="#7D59FF"/>
<path d="M236.593 108L259.243 0.899993H285.493C296.193 0.899993 304.643 3.19999 310.843 7.79999C317.143 12.4 320.293 19.9 320.293 30.3C320.293 35.9 319.243 40.85 317.143 45.15C315.143 49.45 312.343 53.05 308.743 55.95C305.243 58.75 301.243 60.95 296.743 62.55L315.793 108H291.493L276.343 66.9H267.643L258.943 108H236.593ZM277.243 48.45C280.443 48.45 283.293 48.1 285.793 47.4C288.293 46.7 290.393 45.65 292.093 44.25C293.893 42.85 295.243 41.1 296.143 39C297.043 36.8 297.493 34.3 297.493 31.5C297.493 27.5 296.343 24.5 294.043 22.5C291.743 20.5 288.093 19.5 283.093 19.5H277.693L271.543 48.45H277.243Z" fill="#714BFF"/>
<path d="M328 108L350.65 0.899993H380.5C389.2 0.899993 396.15 2.19999 401.35 4.8C406.65 7.39999 410.45 11.05 412.75 15.75C415.15 20.45 416.35 25.9 416.35 32.1C416.35 38.5 415.15 44.05 412.75 48.75C410.45 53.45 407.2 57.4 403 60.6C398.8 63.7 393.85 66.05 388.15 67.65C382.45 69.15 376.3 69.9 369.7 69.9H358.3L350.35 108H328ZM371.5 51.3C376 51.3 379.9 50.6 383.2 49.2C386.6 47.7 389.2 45.55 391 42.75C392.9 39.95 393.85 36.6 393.85 32.7C393.85 28.2 392.65 24.9 390.25 22.8C387.85 20.6 384.3 19.5 379.6 19.5H369.1L362.35 51.3H371.5Z" fill="#673DFF"/>
<path d="M419.552 108L442.202 0.899993H464.552L455.702 42.9H490.202L499.052 0.899993H521.402L498.752 108H476.402L486.152 61.8H451.652L441.902 108H419.552Z" fill="#4B1AFF"/>
<path d="M542.882 108L551.582 67.05L534.332 0.899993H557.132L566.582 44.25L594.032 0.899993H619.082L573.782 67.05L565.082 108H542.882Z" fill="#3600FC"/>
</svg>
