<svg width="80" height="30" viewBox="0 0 80 30" fill="none" xmlns="http://www.w3.org/2000/svg">
<g clip-path="url(#clip0_3443_19003)">
<path d="M10.6102 29.3091C3.48737 29.3091 0.299805 24.174 0.299805 19.0761C0.299805 13.1922 4.4985 8.77 10.0848 8.77C12.522 8.77 14.4903 9.59459 15.9704 11.2438L16.4573 11.7871V0.693604H20.8629V19.0389C20.8629 21.9057 19.9263 24.4925 18.22 26.31C16.3828 28.2777 13.74 29.3078 10.6102 29.3078V29.3091ZM10.6475 12.8365C6.86123 12.8365 4.68608 15.1034 4.68608 19.0389C4.68608 22.9743 6.85994 25.2413 10.6475 25.2413C14.4351 25.2413 16.4393 23.0488 16.4393 19.0389C16.4393 15.0289 14.3772 12.8365 10.6475 12.8365Z" fill="#0E1D31"/>
<path d="M20.5631 0.974927V19.0389C20.5631 21.8312 19.6444 24.3423 17.9948 26.1225C16.214 28.0337 13.665 29.0265 10.6098 29.0265C7.55456 29.0265 4.91175 27.9772 3.09249 26.0094C1.46209 24.2292 0.561453 21.7555 0.561453 19.0762C0.561453 16.3969 1.51734 13.7921 3.24152 11.9361C4.98498 10.0622 7.40296 9.03206 10.065 9.03206C12.4085 9.03206 14.3203 9.83738 15.7258 11.4121L16.701 12.4987V0.974927H20.5631ZM10.6471 25.5226C14.5644 25.5226 16.7203 23.2171 16.7203 19.0389C16.7203 14.8607 14.5644 12.5552 10.6471 12.5552C8.54771 12.5552 6.93529 13.2115 5.84836 14.4857C4.91175 15.5916 4.42353 17.165 4.42353 19.0389C4.42353 20.9129 4.91047 22.4876 5.84836 23.5922C6.93529 24.8663 8.54771 25.5226 10.6471 25.5226ZM21.1258 0.412354H16.1588V11.0563C14.7532 9.4816 12.7657 8.48875 10.0663 8.48875C4.18071 8.48875 0 13.1743 0 19.0762C0 24.585 3.5987 29.5891 10.5905 29.5891C17.5823 29.5891 21.1065 24.8663 21.1065 19.0389V0.412354H21.1258ZM10.6471 24.9614C6.54215 24.9614 4.967 22.3193 4.967 19.0402C4.967 15.7611 6.54215 13.1191 10.6471 13.1191C14.0402 13.1191 16.1575 14.9738 16.1575 19.0402C16.1575 23.1067 14.0389 24.9614 10.6471 24.9614Z" fill="#0E1D31"/>
<path d="M26.3729 29.1022V8.97673H30.7785V29.1022H26.3729ZM28.566 6.05212C26.8598 6.05212 25.6611 4.85248 25.6611 3.14806C25.6611 1.44364 26.8611 0.28125 28.566 0.28125C30.5343 0.28125 31.4337 1.76218 31.4337 3.14806C31.4337 4.87174 30.2902 6.05212 28.566 6.05212Z" fill="#0E1D31"/>
<path d="M28.5662 0.562573C29.3537 0.562573 30.009 0.824594 30.4779 1.31267C30.9096 1.78148 31.1524 2.41855 31.1524 3.13012C31.1524 4.72279 30.14 5.75417 28.5662 5.75417C26.9923 5.75417 25.9413 4.66756 25.9413 3.13012C25.9413 1.85598 26.7662 0.562573 28.5662 0.562573ZM30.4972 9.25805V28.821H26.6544V9.25677H30.4972M28.5662 0C26.5786 0 25.3799 1.40515 25.3799 3.1481C25.3799 4.89105 26.5799 6.33344 28.5662 6.33344C30.5524 6.33344 31.7152 4.9283 31.7152 3.1481C31.7152 1.4424 30.5524 0 28.5662 0ZM31.0587 8.69548H26.0917V29.3835H31.0587V8.69548Z" fill="#0E1D31"/>
<path d="M45.3803 29.309C42.2878 29.309 39.663 28.2789 37.8077 26.3112C36.0643 24.4745 35.1084 21.889 35.1084 19.0401C35.1084 16.1913 36.0643 13.6058 37.8077 11.7691C39.663 9.80134 42.2878 8.77124 45.3803 8.77124C48.4728 8.77124 51.0976 9.80134 52.9528 11.7691C54.6963 13.6058 55.6522 16.1913 55.6522 19.0401C55.6522 21.889 54.6963 24.4745 52.9528 26.3112C51.0976 28.2789 48.4728 29.309 45.3803 29.309ZM45.3803 12.8364C41.7058 12.8364 39.5127 15.1599 39.5127 19.0388C39.5127 22.9178 41.7058 25.2413 45.3803 25.2413C49.0548 25.2413 51.2479 22.9178 51.2479 19.0388C51.2479 15.1599 49.0548 12.8364 45.3803 12.8364Z" fill="#0E1D31"/>
<path d="M45.3804 9.05134C48.3984 9.05134 50.9474 10.0635 52.7474 11.9554C54.4343 13.7356 55.3722 16.2659 55.3722 19.0389C55.3722 21.812 54.4356 24.323 52.7474 26.1225C50.9474 28.0337 48.3984 29.0266 45.3804 29.0266C42.3624 29.0266 39.8134 28.0144 38.0134 26.1225C36.3265 24.3423 35.3886 21.812 35.3886 19.0389C35.3886 16.2659 36.3252 13.7549 38.0134 11.9554C39.8134 10.0442 42.3624 9.05134 45.3804 9.05134ZM45.3804 25.5227C47.386 25.5227 49.0164 24.8483 50.0853 23.5922C51.0412 22.4683 51.5474 20.8936 51.5474 19.0389C51.5474 17.1843 51.0412 15.6096 50.0853 14.4857C49.0164 13.2295 47.386 12.5552 45.3804 12.5552C43.3749 12.5552 41.7445 13.2295 40.6755 14.4857C39.7196 15.6096 39.2134 17.1843 39.2134 19.0389C39.2134 20.8936 39.7196 22.4683 40.6755 23.5922C41.7445 24.8483 43.3749 25.5227 45.3804 25.5227ZM45.3804 8.48877C38.7072 8.48877 34.8271 13.2116 34.8271 19.0389C34.8271 24.8663 38.7265 29.5891 45.3804 29.5891C52.0343 29.5891 55.9337 24.8663 55.9337 19.0389C55.9337 13.2116 52.0536 8.48877 45.3804 8.48877ZM45.3804 24.9601C41.4438 24.9601 39.7941 22.3181 39.7941 19.0389C39.7941 15.7598 41.4438 13.1178 45.3804 13.1178C49.317 13.1178 50.9667 15.7598 50.9667 19.0389C50.9667 22.3181 49.317 24.9601 45.3804 24.9601Z" fill="#0E1D31"/>
<path d="M75.315 29.1023V19.0389C75.315 15.16 73.2722 12.8365 69.8598 12.8365C66.4474 12.8365 64.4046 15.1035 64.4046 19.0389V29.1023H59.999V19.0389C59.999 12.893 63.9536 8.77002 69.8585 8.77002C75.7634 8.77002 79.718 12.893 79.718 19.0389V29.1023H75.3124H75.315Z" fill="#0E1D31"/>
<path d="M69.8596 9.05134C72.7645 9.05134 75.2017 10.0442 76.9259 11.9374C78.5563 13.7176 79.4377 16.2479 79.4377 19.0402V28.8223H75.5949V19.0402C75.5949 14.9738 73.4583 12.5565 69.8596 12.5565C66.2609 12.5565 64.1243 14.9738 64.1243 19.0402V28.8223H60.2622V19.0402C60.2622 16.2479 61.1616 13.7176 62.774 11.9374C64.5174 10.0442 66.9547 9.05134 69.8596 9.05134ZM69.8596 8.48877C63.4485 8.48877 59.7188 13.173 59.7188 19.0389V29.3836H64.6857V19.0389C64.6857 15.553 66.3354 13.1178 69.8596 13.1178C73.3838 13.1178 75.0334 15.5543 75.0334 19.0389V29.3836H80.0004V19.0389C80.0004 13.155 76.2707 8.48877 69.8596 8.48877Z" fill="#0E1D31"/>
</g>
<defs>
<clipPath id="clip0_3443_19003">
<rect width="80" height="29.589" fill="white"/>
</clipPath>
</defs>
</svg>
