<svg width="2678" height="971" viewBox="0 0 2678 971" fill="none" xmlns="http://www.w3.org/2000/svg">
<rect x="0.5" y="0.5" width="2677" height="970" stroke="black"/>
<path d="M1062.05 629.34C1040.47 629.34 1022.54 624.797 1008.25 615.71C994.271 606.32 983.937 592.235 977.251 573.456C970.564 554.374 967.221 530.142 967.221 500.761C967.221 470.775 970.261 446.392 976.339 427.612C982.722 408.53 992.903 394.445 1006.88 385.358C1020.86 376.271 1039.25 371.728 1062.05 371.728C1083.93 371.728 1103.99 377.029 1122.23 387.63C1140.46 397.928 1155.05 412.77 1165.99 432.156C1176.93 451.238 1182.4 474.106 1182.4 500.761C1182.4 527.416 1176.93 550.436 1165.99 569.821C1155.05 588.904 1140.46 603.594 1122.23 613.892C1103.99 624.191 1083.93 629.34 1062.05 629.34ZM895.646 712.939V376.271H993.663V409.893L994.119 500.761L998.678 591.63V712.939H895.646ZM1037.43 549.376C1045.03 549.376 1051.87 547.558 1057.94 543.924C1064.02 540.289 1068.89 534.837 1072.53 527.567C1076.18 520.298 1078 511.363 1078 500.761C1078 489.857 1076.18 480.77 1072.53 473.501C1068.89 466.231 1064.02 460.779 1057.94 457.144C1051.87 453.51 1045.03 451.692 1037.43 451.692C1029.83 451.692 1022.99 453.51 1016.91 457.144C1010.84 460.779 1005.97 466.231 1002.33 473.501C998.678 480.77 996.854 489.857 996.854 500.761C996.854 511.363 998.678 520.298 1002.33 527.567C1005.97 534.837 1010.84 540.289 1016.91 543.924C1022.99 547.558 1029.83 549.376 1037.43 549.376Z" fill="black"/>
<path d="M1214.86 624.797V287.675H1317.89V624.797H1214.86Z" fill="black"/>
<path d="M1827.97 371.728C1847.12 371.728 1864.44 375.666 1879.94 383.541C1895.44 391.113 1907.6 403.078 1916.41 419.434C1925.53 435.79 1930.09 456.993 1930.09 483.042V624.797H1827.06V500.761C1827.06 485.314 1824.32 474.409 1818.85 468.049C1813.38 461.385 1805.94 458.053 1796.51 458.053C1789.52 458.053 1782.99 459.719 1776.91 463.051C1771.14 466.08 1766.42 471.229 1762.78 478.498C1759.43 485.768 1757.76 495.612 1757.76 508.031V624.797H1654.73V376.271H1752.75V448.966L1733.14 428.066C1742.87 409.287 1755.94 395.202 1772.35 385.813C1789.07 376.423 1807.61 371.728 1827.97 371.728Z" fill="black"/>
<path d="M2113.3 624.797V376.271H2216.33V624.797H2113.3Z" fill="black"/>
<path d="M2382.35 629.34C2348.01 629.34 2321.26 621.162 2302.12 604.806C2282.97 588.146 2273.4 562.703 2273.4 528.476V320.387H2376.43V527.567C2376.43 535.14 2378.4 541.046 2382.35 545.287C2386.61 549.527 2391.78 551.648 2397.86 551.648C2406.67 551.648 2414.42 549.376 2421.11 544.832L2445.72 616.164C2437.82 620.708 2428.25 624.039 2417 626.16C2406.06 628.28 2394.51 629.34 2382.35 629.34ZM2239.2 464.868V389.902H2427.49V464.868H2239.2Z" fill="black"/>
<path d="M378.152 731.669C353.695 731.669 330.747 729.111 309.309 723.995C287.871 718.88 269.453 711.207 254.054 700.976L288.475 631.465C298.137 638.987 310.366 644.855 325.161 649.068C340.258 653.582 354.449 655.839 367.735 655.839C388.871 655.839 403.968 651.325 413.026 642.297C422.085 633.571 426.614 620.933 426.614 604.382V583.619L431.143 506.887L431.596 430.154V392.69H528.972V590.39C528.972 638.235 515.687 673.743 489.116 696.913C462.545 720.084 425.557 731.669 378.152 731.669ZM358.224 626.048C337.39 626.048 317.914 621.234 299.798 611.604C281.681 601.674 267.037 587.832 255.865 570.078C244.693 552.324 239.107 531.261 239.107 506.887C239.107 482.513 244.693 461.449 255.865 443.695C267.037 425.941 281.681 412.249 299.798 402.62C317.914 392.991 337.39 388.176 358.224 388.176C379.662 388.176 397.174 392.389 410.762 400.815C424.651 409.24 434.917 422.33 441.56 440.084C448.203 457.537 451.524 479.804 451.524 506.887C451.524 533.969 448.203 556.387 441.56 574.141C434.917 591.594 424.651 604.683 410.762 613.41C397.174 621.835 379.662 626.048 358.224 626.048ZM385.399 546.607C393.551 546.607 400.798 544.952 407.138 541.642C413.479 538.332 418.461 533.668 422.085 527.65C425.708 521.631 427.519 514.71 427.519 506.887C427.519 498.762 425.708 491.841 422.085 486.124C418.461 480.105 413.479 475.592 407.138 472.582C400.798 469.272 393.551 467.617 385.399 467.617C377.548 467.617 370.301 469.272 363.659 472.582C357.318 475.592 352.185 480.105 348.26 486.124C344.636 491.841 342.825 498.762 342.825 506.887C342.825 514.71 344.636 521.631 348.26 527.65C352.185 533.668 357.318 538.332 363.659 541.642C370.301 544.952 377.548 546.607 385.399 546.607Z" fill="black"/>
<path d="M705.127 644.103C677.047 644.103 652.136 638.687 630.397 627.854C608.959 616.72 592.05 601.524 579.67 582.265C567.291 563.007 561.101 540.89 561.101 515.914C561.101 490.938 567.291 468.821 579.67 449.563C592.05 430.304 608.959 415.258 630.397 404.426C652.136 393.593 677.047 388.176 705.127 388.176C733.208 388.176 758.118 393.593 779.858 404.426C801.598 415.258 818.507 430.304 830.584 449.563C842.964 468.821 849.154 490.938 849.154 515.914C849.154 540.89 842.964 563.007 830.584 582.265C818.507 601.524 801.598 616.72 779.858 627.854C758.118 638.687 733.208 644.103 705.127 644.103ZM705.127 564.662C712.676 564.662 719.47 562.856 725.508 559.245C731.547 555.634 736.378 550.218 740.002 542.996C743.625 535.473 745.437 526.446 745.437 515.914C745.437 505.081 743.625 496.204 740.002 489.283C736.378 482.061 731.547 476.645 725.508 473.034C719.47 469.423 712.676 467.617 705.127 467.617C697.579 467.617 690.785 469.423 684.746 473.034C678.707 476.645 673.876 482.061 670.253 489.283C666.63 496.204 664.818 505.081 664.818 515.914C664.818 526.446 666.63 535.473 670.253 542.996C673.876 550.218 678.707 555.634 684.746 559.245C690.785 562.856 697.579 564.662 705.127 564.662Z" fill="black"/>
<path d="M1588.82 393.379V487.626C1588.82 513.603 1602.16 510.939 1611.5 502.946C1620.83 494.953 1634.17 467.643 1634.84 512.937C1635.5 558.231 1613.5 538.914 1605.49 528.257C1599.35 520.081 1592.31 530.852 1589.2 538.016C1588.94 538.608 1588.82 539.246 1588.82 539.892V619.173C1588.82 621.934 1586.58 624.173 1583.82 624.173H1510.64C1505.58 624.173 1502.75 616.038 1505.3 611.672C1507 608.768 1508.13 605.556 1508.13 602.192C1508.13 589.537 1498.79 578.879 1479.45 578.879C1460.11 578.879 1444.77 584.874 1444.77 602.192C1444.77 607.09 1436.34 624.173 1431.45 624.173H1358.4C1355.64 624.173 1353.4 621.959 1353.4 619.198V498.283C1355 404.498 1414.98 385.937 1444.77 388.379H1583.82C1586.58 388.379 1588.82 390.618 1588.82 393.379Z" fill="#FF006E"/>
<rect width="13.5871" height="25.1472" rx="6.79357" transform="matrix(-1 0 0 1 1458.22 446.208)" fill="black"/>
<rect width="13.5871" height="25.1472" rx="6.79357" transform="matrix(-1 0 0 1 1425.22 446.208)" fill="black"/>
<path fill-rule="evenodd" clip-rule="evenodd" d="M1484.42 468.454C1482.28 468.454 1480.54 470.186 1480.54 472.323C1480.54 476.971 1478 484.388 1469.44 490.125C1460.85 495.884 1445.86 500.143 1420.78 497.492C1418.65 497.266 1416.73 498.806 1416.51 500.931C1416.28 503.056 1417.83 504.961 1419.96 505.186C1446.12 507.951 1463.15 503.667 1473.78 496.546C1484.43 489.403 1488.3 479.603 1488.3 472.323C1488.3 470.186 1486.57 468.454 1484.42 468.454Z" fill="black"/>
<path d="M2023.6 629.55C2006.67 629.55 1992.47 624.113 1980.98 613.238C1969.49 602.061 1963.75 587.863 1963.75 570.645C1963.75 553.124 1969.49 539.077 1980.98 528.504C1992.47 517.931 2006.67 512.645 2023.6 512.645C2040.53 512.645 2054.74 517.931 2066.23 528.504C2077.72 539.077 2083.46 553.124 2083.46 570.645C2083.46 587.863 2077.72 602.061 2066.23 613.238C2054.74 624.113 2040.53 629.55 2023.6 629.55Z" fill="black"/>
<path d="M2163.55 357.225C2144.78 357.225 2129.8 352.24 2118.6 342.272C2107.4 332.303 2101.8 319.918 2101.8 305.116C2101.8 290.314 2107.4 277.929 2118.6 267.96C2129.8 257.991 2144.78 253.007 2163.55 253.007C2182.31 253.007 2197.3 257.689 2208.5 267.054C2219.69 276.418 2225.29 288.501 2225.29 303.303C2225.29 319.012 2219.69 332.001 2208.5 342.272C2197.3 352.24 2182.31 357.225 2163.55 357.225Z" fill="black"/>
</svg>
